<svg width="20" height="20" viewBox="0 0 20 20" fill="none" xmlns="http://www.w3.org/2000/svg">
<path d="M0.833374 7.25001C0.833374 5.52118 0.833374 4.65768 1.37054 4.12051C1.90771 3.58334 2.77121 3.58334 4.50004 3.58334H15.5C17.2289 3.58334 18.0924 3.58334 18.6295 4.12051C19.1667 4.65768 19.1667 5.52118 19.1667 7.25001C19.1667 7.68176 19.1667 7.89809 19.0329 8.03284C18.8981 8.16668 18.6809 8.16668 18.25 8.16668H1.75004C1.31829 8.16668 1.10196 8.16668 0.967207 8.03284C0.833374 7.89809 0.833374 7.68084 0.833374 7.25001Z" fill="white"/>
<path fill-rule="evenodd" clip-rule="evenodd" d="M1.37054 18.6295C0.833374 18.0923 0.833374 17.2288 0.833374 15.5V10.9167C0.833374 10.4849 0.833374 10.2686 0.967207 10.1338C1.10196 10 1.31921 10 1.75004 10H18.25C18.6818 10 18.8981 10 19.0329 10.1338C19.1667 10.2686 19.1667 10.4849 19.1667 10.9167V15.5C19.1667 17.2288 19.1667 18.0923 18.6295 18.6295C18.0924 19.1667 17.2289 19.1667 15.5 19.1667H4.50004C2.77121 19.1667 1.90771 19.1667 1.37054 18.6295ZM6.33337 13.6667C6.09026 13.6667 5.8571 13.7632 5.68519 13.9352C5.51328 14.1071 5.41671 14.3402 5.41671 14.5833C5.41671 14.8264 5.51328 15.0596 5.68519 15.2315C5.8571 15.4034 6.09026 15.5 6.33337 15.5H13.6667C13.9098 15.5 14.143 15.4034 14.3149 15.2315C14.4868 15.0596 14.5834 14.8264 14.5834 14.5833C14.5834 14.3402 14.4868 14.1071 14.3149 13.9352C14.143 13.7632 13.9098 13.6667 13.6667 13.6667H6.33337Z" fill="white"/>
<path d="M5.41675 1.75V4.5M14.5834 1.75V4.5" stroke="white" stroke-width="2" stroke-linecap="round"/>
</svg>
